<svg width="51" height="33" viewBox="0 0 51 33" fill="none" xmlns="http://www.w3.org/2000/svg">
<path d="M22.1913 31.4959L1.09674 7.31375C-1.39274 4.46853 0.63051 1.62202e-06 4.40871 1.62202e-06H46.5979C47.4434 -0.000725461 48.2713 0.243003 48.9823 0.702C49.6933 1.161 50.2573 1.81581 50.6067 2.58801C50.9562 3.36022 51.0764 4.21709 50.9528 5.056C50.8292 5.89492 50.4671 6.68032 49.9098 7.31816L28.8153 31.4915C28.4024 31.9653 27.8933 32.345 27.3221 32.6052C26.7508 32.8654 26.1307 33 25.5033 33C24.8759 33 24.2558 32.8654 23.6845 32.6052C23.1133 32.345 22.6041 31.9653 22.1913 31.4915V31.4959Z" fill="#F59193"/>
</svg>
